<svg xmlns="http://www.w3.org/2000/svg" viewBox="-2 -2 38.00 37.00"><desc>Illustrative planned-area preview. Natural Earth public domain. Not a playable manifest.</desc><path fill="#98aaa0" d="M8.25,8.01L8.21,8.06L8.19,8.12L8.16,8.18L8.11,8.18L8.05,8.23L7.99,8.23L7.90,8.28L7.80,8.29L7.74,8.30L7.67,8.35L7.62,8.37L7.58,8.33L7.53,8.31L7.48,8.33L7.40,8.35L7.33,8.33L7.27,8.30L7.22,8.29L7.16,8.25L7.12,8.15L7.08,8.11L7.07,8.05L7.04,7.97L7.04,7.90L7.09,7.94L7.15,7.96L7.21,7.92L7.24,7.86L7.28,7.83L7.34,7.85L7.39,7.82L7.42,7.87L7.48,7.90L7.53,7.93L7.58,7.93L7.64,7.89L7.69,7.86L7.75,7.87L7.80,7.84L7.85,7.85L7.91,7.89L7.95,7.85L8.00,7.84L8.04,7.90L8.03,7.98L8.08,7.96L8.13,8.00L8.19,7.99L8.25,8.01Z M8.41,7.94L8.47,7.94L8.53,7.95L8.56,8.01L8.51,8.01L8.42,8.03L8.37,8.04L8.36,7.98L8.39,7.93Z M8.71,11.79L8.77,11.74L8.80,11.69L8.81,11.61L8.91,11.51L8.97,11.46L8.91,11.42L9.01,11.24L9.07,11.13L9.11,11.05L9.13,10.96L9.21,10.72L9.24,10.57L9.27,10.44L9.28,10.37L9.30,10.28L9.31,10.19L9.37,10.17L9.41,10.13L9.41,10.06L9.42,10.00L9.43,9.93L9.51,9.92L9.58,9.90L9.62,9.93L9.69,9.93L9.76,9.91L9.79,9.85L9.79,9.78L9.82,9.72L9.86,9.76L9.90,9.72L9.94,9.68L9.99,9.66L10.03,9.61L10.00,9.67L10.00,9.73L10.04,9.80L10.05,9.86L10.07,9.91L10.08,10.01L10.09,10.08L10.06,10.13L10.02,10.22L9.93,10.29L9.87,10.32L9.83,10.36L9.84,10.43L9.83,10.49L9.83,10.55L9.83,10.62L9.76,10.60L9.70,10.59L9.68,10.51L9.63,10.49L9.58,10.49L9.53,10.46L9.48,10.49L9.43,10.52L9.39,10.57L9.37,10.63L9.34,10.71L9.32,10.80L9.34,10.88L9.36,10.98L9.35,11.05L9.38,11.14L9.33,11.16L9.39,11.15L9.45,11.18L9.50,11.19L9.53,11.15L9.57,11.20L9.56,11.26L9.50,11.28L9.45,11.28L9.40,11.32L9.33,11.37L9.30,11.42L9.29,11.51L9.25,11.57L9.25,11.64L9.31,11.65L9.38,11.64L9.49,11.64L9.54,11.62L9.63,11.54L9.68,11.51L9.74,11.51L9.74,11.58L9.72,11.64L9.70,11.72L9.70,11.80L9.73,11.87L9.68,11.98L9.68,12.04L9.63,12.09L9.62,12.16L9.59,12.21L9.57,12.28L9.52,12.38L9.49,12.51L9.47,12.57L9.49,12.64L9.46,12.74L9.47,12.85L9.46,12.91L9.42,12.97L9.41,13.03L9.40,13.14L9.35,13.27L9.34,13.35L9.32,13.41L9.29,13.48L9.23,13.45L9.22,13.36L9.20,13.26L9.17,13.16L9.13,13.06L9.13,13.00L9.09,12.89L9.04,12.74L9.01,12.66L8.95,12.60L8.96,12.53L8.93,12.47L8.91,12.35L8.86,12.21L8.81,12.09L8.78,12.01L8.75,11.92L8.72,11.82Z M8.91,11.42L8.97,11.46L8.92,11.51L8.81,11.61L8.80,11.69L8.77,11.74L8.72,11.78L8.69,11.72L8.70,11.66L8.76,11.59L8.81,11.53L8.88,11.47L8.91,11.42Z M9.34,11.03L9.34,10.91L9.33,10.85L9.35,10.77L9.35,10.68L9.38,10.62L9.40,10.54L9.45,10.51L9.50,10.47L9.56,10.48L9.63,10.49L9.68,10.51L9.70,10.59L9.76,10.60L9.83,10.62L9.83,10.69L9.84,10.75L9.83,10.81L9.80,10.89L9.80,10.99L9.81,11.06L9.82,11.16L9.83,11.23L9.78,11.31L9.74,11.43L9.74,11.51L9.68,11.51L9.63,11.54L9.54,11.62L9.49,11.64L9.38,11.64L9.33,11.64L9.27,11.65L9.25,11.57L9.29,11.51L9.29,11.45L9.31,11.39L9.40,11.32L9.45,11.28L9.50,11.28L9.56,11.29L9.57,11.22L9.56,11.16L9.51,11.17L9.45,11.18L9.40,11.15L9.35,11.17L9.38,11.09L9.34,11.03Z M9.44,9.91L9.48,9.86L9.52,9.78L9.53,9.71L9.56,9.64L9.58,9.57L9.62,9.51L9.66,9.46L9.69,9.36L9.71,9.30L9.76,9.20L9.76,9.13L9.80,9.09L9.85,9.06L9.87,9.01L9.90,8.91L9.89,8.85L9.90,8.78L9.91,8.72L9.95,8.68L9.98,8.63L10.04,8.59L10.12,8.52L10.16,8.48L10.19,8.40L10.25,8.37L10.33,8.37L10.42,8.37L10.46,8.31L10.51,8.37L10.57,8.37L10.53,8.40L10.51,8.46L10.56,8.50L10.59,8.54L10.65,8.58L10.64,8.64L10.67,8.69L10.68,8.76L10.69,8.83L10.63,8.89L10.60,8.95L10.55,8.95L10.50,8.99L10.46,9.04L10.43,9.09L10.50,9.13L10.46,9.17L10.40,9.15L10.34,9.17L10.29,9.17L10.23,9.19L10.19,9.24L10.16,9.29L10.13,9.36L10.18,9.38L10.23,9.41L10.18,9.47L10.13,9.49L10.11,9.56L10.05,9.59L10.02,9.64L9.97,9.67L9.91,9.71L9.86,9.76L9.82,9.72L9.79,9.78L9.79,9.85L9.76,9.91L9.69,9.93L9.63,9.94L9.60,9.90L9.54,9.91L9.44,9.91Z M9.99,10.26L10.06,10.17L10.07,10.10L10.10,10.06L10.07,9.91L10.05,9.86L10.04,9.80L10.01,9.74L10.00,9.67L10.04,9.63L10.09,9.57L10.15,9.51L10.20,9.46L10.23,9.40L10.16,9.37L10.15,9.30L10.19,9.24L10.23,9.19L10.29,9.17L10.34,9.17L10.40,9.15L10.46,9.17L10.51,9.16L10.46,9.13L10.45,9.05L10.50,8.99L10.55,8.95L10.60,8.95L10.63,8.89L10.69,8.83L10.68,8.76L10.69,8.69L10.65,8.65L10.65,8.59L10.61,8.55L10.57,8.51L10.51,8.50L10.53,8.43L10.57,8.37L10.51,8.37L10.48,8.32L10.43,8.37L10.37,8.38L10.30,8.37L10.23,8.37L10.17,8.35L10.15,8.27L10.14,8.21L10.11,8.15L10.09,8.08L10.10,8.01L10.10,7.94L10.11,7.88L10.15,7.82L10.13,7.71L10.13,7.60L10.08,7.52L10.03,7.49L9.98,7.44L10.01,7.39L10.01,7.32L10.06,7.26L10.05,7.19L10.10,7.13L10.13,7.08L10.18,7.07L10.20,7.13L10.27,7.15L10.32,7.18L10.35,7.08L10.39,7.04L10.45,7.00L10.50,7.01L10.50,6.83L10.52,6.77L10.57,6.80L10.62,6.77L10.69,6.78L10.76,6.77L10.76,6.71L10.70,6.68L10.70,6.61L10.65,6.54L10.68,6.47L10.68,6.38L10.71,6.31L10.71,6.25L10.75,6.20L10.92,6.22L10.97,6.23L11.02,6.25L11.07,6.29L11.06,6.36L11.12,6.36L11.18,6.36L11.24,6.34L11.39,6.37L11.55,6.29L11.61,6.27L11.75,6.24L11.88,6.18L12.00,6.12L12.06,6.09L12.15,6.10L12.31,6.14L12.44,6.26L12.52,6.31L12.58,6.31L12.71,6.31L12.78,6.30L12.91,6.34L13.13,6.31L13.40,6.26L13.58,6.19L13.67,6.15L13.73,6.13L13.82,6.08L13.93,6.01L13.99,5.99L14.05,5.97L14.16,5.91L14.36,5.88L14.56,5.92L14.62,5.94L14.86,5.92L15.21,5.85L15.31,5.82L15.41,5.75L15.45,5.69L15.50,5.71L15.56,5.73L15.60,5.77L15.59,5.84L15.61,5.90L15.54,6.01L15.45,6.09L15.28,6.27L15.17,6.38L15.12,6.41L14.86,6.46L14.80,6.47L14.69,6.65L14.65,6.92L14.68,7.01L14.74,7.14L14.76,7.21L14.76,7.34L14.74,7.41L14.67,7.51L14.66,7.63L14.62,7.76L14.61,7.82L14.62,8.01L14.63,8.18L14.47,8.51L14.44,8.57L14.40,8.61L14.19,8.67L14.06,8.74L13.97,8.80L13.87,8.85L13.78,8.91L13.69,8.96L13.59,9.02L13.50,9.07L13.40,9.13L13.31,9.19L13.22,9.24L13.12,9.30L13.03,9.35L12.93,9.41L12.84,9.46L12.75,9.52L12.65,9.57L12.56,9.63L12.35,9.76L12.17,9.87L12.10,9.91L11.95,10.01L11.84,10.07L11.69,10.17L11.55,10.26L11.47,10.31L11.40,10.35L11.26,10.45L11.16,10.51L11.03,10.59L10.90,10.68L10.82,10.67L10.76,10.66L10.64,10.64L10.55,10.63L10.44,10.54L10.39,10.51L10.34,10.48L10.28,10.48L10.21,10.41L10.20,10.34L10.15,10.33L10.02,10.27Z M27.42,17.67L27.50,17.71L27.45,17.75L27.40,17.79L27.41,17.72Z M27.27,16.94L27.33,16.80L27.36,16.74L27.42,16.78L27.47,16.80L27.54,16.79L27.48,16.78L27.47,16.71L27.50,16.66L27.55,16.64L27.59,16.67L27.55,16.72L27.58,16.76L27.59,16.83L27.54,16.82L27.48,16.83L27.49,16.89L27.60,16.90L27.56,16.94L27.54,17.01L27.59,17.05L27.53,17.06L27.52,17.14L27.49,17.21L27.46,17.26L27.43,17.33L27.40,17.38L27.35,17.35L27.32,17.28L27.34,17.22L27.32,17.16L27.35,17.03L27.35,16.96L27.29,16.94Z M27.53,18.02L27.54,18.10L27.60,18.22L27.62,18.30L27.72,18.50L27.79,18.57L27.88,18.70L27.91,18.78L28.00,18.88L28.10,18.98L28.18,19.05L28.33,19.12L28.48,19.16L28.55,19.19L28.60,19.21L28.65,19.22L28.71,19.21L28.75,19.25L28.80,19.28L28.94,19.28L29.01,19.29L29.06,19.31L29.12,19.36L29.21,19.38L29.29,19.38L29.34,19.35L29.40,19.35L29.44,19.41L29.49,19.45L29.55,19.46L29.57,19.52L29.59,19.58L29.65,19.65L29.69,19.68L29.71,19.74L29.75,19.79L29.81,19.91L29.85,19.98L29.90,20.01L29.95,20.06L29.99,20.17L30.05,20.24L30.08,20.30L30.13,20.37L30.18,20.40L30.22,20.44L30.28,20.42L30.34,20.46L30.38,20.50L30.43,20.47L30.46,20.52L30.45,20.72L30.42,20.80L30.37,20.88L30.33,20.92L30.31,21.01L30.30,21.07L30.25,21.11L30.17,21.24L30.15,21.33L30.05,21.51L29.92,21.62L29.80,21.72L29.68,21.86L29.65,21.92L29.59,22.01L29.57,22.07L29.52,22.12L29.48,22.17L29.47,22.24L29.46,22.29L29.41,22.34L29.39,22.41L29.36,22.48L29.35,22.54L29.31,22.60L29.26,22.64L29.21,22.62L29.15,22.63L29.09,22.60L29.08,22.53L29.11,22.47L29.12,22.39L29.05,22.40L28.99,22.42L28.96,22.49L28.93,22.54L28.88,22.58L28.88,22.65L28.82,22.70L28.78,22.74L28.75,22.80L28.77,22.86L28.76,22.92L28.74,22.99L28.72,23.08L28.70,23.16L28.64,23.25L28.65,23.31L28.66,23.38L28.65,23.45L28.70,23.55L28.71,23.62L28.69,23.69L28.71,23.78L28.74,23.84L28.73,23.91L28.76,23.97L28.73,24.02L28.68,24.04L28.48,24.05L28.23,24.09L28.12,24.12L27.98,24.19L27.92,24.23L27.87,24.27L27.76,24.40L27.74,24.49L27.73,24.56L27.72,24.65L27.67,24.81L27.67,24.87L27.61,24.90L27.57,24.97L27.50,25.03L27.36,25.04L27.30,25.06L27.23,25.06L27.15,25.08L26.91,25.10L26.82,25.13L26.77,25.15L26.72,25.18L26.70,25.23L26.67,25.30L26.57,25.39L26.54,25.46L26.55,25.52L26.60,25.56L26.61,25.63L26.57,25.70L26.57,25.77L26.53,25.81L26.49,25.86L26.45,25.91L26.41,25.96L26.36,25.97L26.32,26.01L26.27,26.03L26.22,26.04L26.16,26.04L26.10,26.02L26.04,25.97L25.98,25.97L25.92,25.96L25.85,25.96L25.80,25.97L25.64,25.99L25.57,25.99L25.52,26.01L25.50,26.07L25.42,26.10L25.37,26.11L25.32,26.13L25.25,26.16L25.22,26.22L25.15,26.25L25.01,26.25L24.94,26.27L24.80,26.32L24.73,26.36L24.67,26.22L24.62,26.09L24.57,25.95L24.51,25.82L24.48,25.73L24.43,25.71L24.39,25.63L24.36,25.53L24.32,25.44L24.28,25.34L24.25,25.24L24.21,25.15L24.18,25.05L24.14,24.95L24.10,24.86L24.07,24.76L24.03,24.66L23.99,24.57L23.96,24.47L23.92,24.37L23.88,24.28L23.85,24.18L23.81,24.08L23.79,24.02L23.88,23.97L24.02,23.91L24.17,23.85L24.31,23.80L24.46,23.74L24.60,23.68L24.75,23.63L24.89,23.57L25.04,23.51L25.19,23.45L25.33,23.40L25.48,23.34L25.62,23.28L25.77,23.23L25.91,23.17L26.06,23.11L26.20,23.05L26.33,23.00L26.36,22.91L26.38,22.83L26.40,22.75L26.44,22.63L26.47,22.50L26.52,22.35L26.56,22.19L26.61,22.03L26.64,21.90L26.70,21.71L26.74,21.56L26.78,21.42L26.81,21.31L26.83,21.22L26.86,21.15L26.89,21.02L26.84,20.89L26.77,20.77L26.70,20.64L26.63,20.52L26.56,20.39L26.51,20.30L26.52,20.15L26.51,20.00L26.54,19.88L26.62,19.72L26.64,19.66L26.66,19.56L26.68,19.50L26.73,19.45L26.76,19.32L26.80,19.24L26.80,19.15L26.76,19.08L26.81,19.01L26.88,18.98L26.93,18.98L26.98,18.97L27.04,18.99L27.14,18.95L27.19,18.93L27.17,18.86L27.14,18.78L27.07,18.79L27.00,18.78L27.03,18.67L27.04,18.61L27.01,18.56L27.00,18.46L27.02,18.38L27.03,18.31L27.03,18.24L27.02,18.14L27.05,18.08L27.11,18.03L27.18,18.03L27.21,18.07L27.22,18.14L27.17,18.12L27.20,18.18L27.23,18.25L27.28,18.27L27.33,18.21L27.39,18.17L27.43,18.13L27.47,18.07L27.53,18.02Z M27.25,25.44L27.25,25.50L27.19,25.51L27.22,25.45Z M29.67,22.37L29.70,22.46L29.67,22.53L29.62,22.56L29.59,22.62L29.57,22.69L29.54,22.75L29.50,22.79L29.45,22.83L29.44,22.75L29.45,22.64L29.49,22.60L29.54,22.56L29.57,22.48L29.62,22.39L29.65,22.32L29.67,22.37Z M27.44,17.37L27.49,17.40L27.51,17.47L27.51,17.57L27.51,17.63L27.53,17.70L27.51,17.79L27.51,17.93L27.53,18.02L27.47,18.04L27.46,18.10L27.41,18.16L27.35,18.18L27.31,18.24L27.27,18.27L27.20,18.18L27.16,18.13L27.22,18.14L27.21,18.07L27.18,18.03L27.11,18.03L27.05,18.08L27.02,18.14L27.03,18.22L27.03,18.30L27.05,18.36L27.02,18.41L27.01,18.50L27.01,18.57L27.04,18.66L27.00,18.74L27.06,18.79L27.12,18.77L27.16,18.82L27.20,18.92L27.14,18.95L27.04,18.99L26.98,18.97L26.93,18.98L26.88,18.98L26.83,19.00L26.77,19.03L26.79,19.10L26.81,19.23L26.76,19.31L26.73,19.45L26.69,19.50L26.66,19.56L26.64,19.66L26.62,19.72L26.54,19.88L26.52,19.97L26.52,20.15L26.51,20.30L26.45,20.38L26.32,20.36L26.21,20.35L26.09,20.33L25.97,20.31L25.85,20.29L25.73,20.28L25.61,20.26L25.50,20.24L25.38,20.23L25.26,20.21L25.14,20.19L25.02,20.17L24.90,20.16L24.79,20.14L24.67,20.12L24.55,20.11L24.43,20.09L24.30,20.07L24.21,19.98L24.17,19.92L24.12,19.86L24.08,19.80L24.03,19.73L23.99,19.67L23.95,19.61L23.90,19.55L23.86,19.49L23.81,19.42L23.77,19.36L23.72,19.30L23.68,19.24L23.64,19.18L23.59,19.11L23.55,19.05L23.50,18.99L23.45,18.92L23.44,18.81L23.43,18.74L23.45,18.67L23.48,18.74L23.54,18.77L23.58,18.72L23.61,18.82L23.62,18.90L23.63,18.97L23.70,19.01L23.75,19.04L23.81,19.01L23.86,19.04L23.92,19.03L23.98,19.03L24.04,19.00L24.09,18.99L24.13,18.96L24.18,18.93L24.23,18.89L24.28,18.86L24.31,18.79L24.37,18.86L24.45,18.86L24.50,18.85L24.61,18.86L24.65,18.83L24.71,18.88L24.76,18.87L24.81,18.84L24.86,18.90L24.91,18.90L25.02,18.88L25.07,18.91L25.12,18.92L25.17,18.95L25.23,18.94L25.38,18.94L25.46,18.90L25.51,18.89L25.57,18.86L25.63,18.83L25.71,18.78L25.76,18.74L25.83,18.75L25.88,18.68L25.91,18.61L25.95,18.56L25.87,18.48L25.91,18.43L25.94,18.48L25.99,18.49L26.04,18.40L26.05,18.34L26.06,18.28L26.09,18.22L26.14,18.21L26.24,18.11L26.31,18.05L26.35,18.03L26.42,17.98L26.48,17.90L26.57,17.78L26.62,17.77L26.61,17.71L26.66,17.68L26.70,17.63L26.74,17.59L26.77,17.53L26.79,17.47L26.82,17.42L26.85,17.47L26.90,17.42L26.94,17.37L27.00,17.32L27.07,17.29L27.14,17.20L27.21,17.12L27.23,17.07L27.26,16.95L27.33,16.93L27.36,16.99L27.34,17.12L27.32,17.18L27.35,17.23L27.32,17.33L27.37,17.37L27.44,17.37Z M25.21,18.84L25.25,18.78L25.30,18.77L25.35,18.74L25.41,18.78L25.46,18.80L25.43,18.86L25.38,18.85L25.31,18.87L25.25,18.86Z M25.66,18.77L25.61,18.74L25.60,18.68L25.65,18.71L25.66,18.77Z M24.29,18.66L24.34,18.63L24.33,18.72L24.27,18.69Z M24.92,18.74L24.84,18.72L24.89,18.68L24.94,18.66L24.99,18.60L25.02,18.66L24.96,18.70L24.92,18.74Z M25.83,18.56L25.82,18.50L25.88,18.55L25.83,18.56Z M25.73,18.71L25.67,18.70L25.70,18.64L25.73,18.70Z M25.78,18.63L25.76,18.69L25.75,18.62Z M24.06,18.46L24.08,18.52L24.06,18.46Z M16.52,1.89L16.54,1.98L16.59,2.00L16.66,2.04L16.70,2.09L16.71,2.15L16.75,2.22L16.77,2.32L16.75,2.39L16.70,2.45L16.65,2.49L16.65,2.55L16.67,2.63L16.69,2.69L16.72,2.73L16.76,2.82L16.70,2.86L16.75,2.91L16.83,2.93L16.93,2.98L17.03,2.99L17.09,2.96L17.14,2.97L17.22,2.96L17.28,2.97L17.32,2.99L17.39,3.03L17.44,3.07L17.48,3.12L17.51,3.17L17.57,3.20L17.65,3.28L17.68,3.35L17.62,3.31L17.55,3.28L17.50,3.23L17.39,3.30L17.38,3.37L17.36,3.43L17.35,3.49L17.34,3.57L17.27,3.61L17.17,3.59L17.10,3.60L17.05,3.60L17.04,3.66L17.06,3.72L17.07,3.79L17.13,3.83L17.17,3.88L17.15,3.97L17.13,4.02L17.15,4.08L17.19,4.14L17.24,4.19L17.21,4.26L17.22,4.32L17.25,4.38L17.25,4.44L17.26,4.51L17.25,4.58L17.31,4.64L17.36,4.62L17.39,4.68L17.34,4.73L17.32,4.80L17.30,4.86L17.26,4.91L17.23,4.97L17.19,5.02L17.18,5.08L17.22,5.13L17.27,5.12L17.32,5.15L17.36,5.19L17.40,5.23L17.45,5.23L17.51,5.28L17.47,5.33L17.50,5.40L17.49,5.46L17.49,5.52L17.53,5.58L17.56,5.62L17.61,5.66L17.66,5.69L17.67,5.75L17.64,5.80L17.53,5.82L17.46,5.86L17.41,5.91L17.29,5.96L17.26,6.02L17.21,6.02L17.16,5.93L17.16,5.87L17.21,5.83L17.20,5.76L17.16,5.72L17.07,5.69L16.99,5.69L16.94,5.75L16.86,5.78L16.81,5.77L16.68,5.77L16.62,5.75L16.56,5.76L16.50,5.72L16.44,5.68L16.38,5.69L16.26,5.63L16.19,5.64L16.13,5.67L16.06,5.68L15.99,5.65L15.91,5.64L15.79,5.82L15.69,5.87L15.60,5.89L15.59,5.83L15.59,5.76L15.55,5.72L15.49,5.71L15.41,5.75L15.35,5.80L15.21,5.85L14.86,5.92L14.62,5.94L14.56,5.92L14.36,5.88L14.20,5.90L14.05,5.97L13.99,5.99L13.93,6.01L13.82,6.08L13.76,6.12L13.70,6.14L13.58,6.19L13.40,6.26L13.13,6.31L12.95,6.34L12.78,6.30L12.71,6.31L12.58,6.31L12.52,6.31L12.46,6.28L12.35,6.17L12.15,6.10L12.09,6.09L12.00,6.12L11.92,6.16L11.75,6.24L11.61,6.27L11.55,6.29L11.43,6.37L11.26,6.34L11.18,6.36L11.12,6.36L11.06,6.36L11.07,6.29L11.02,6.25L10.97,6.23L10.92,6.22L10.76,6.17L10.72,6.23L10.71,6.29L10.68,6.38L10.68,6.47L10.65,6.52L10.67,6.59L10.71,6.64L10.75,6.69L10.77,6.76L10.70,6.78L10.62,6.77L10.58,6.80L10.53,6.78L10.50,6.98L10.45,7.00L10.42,7.04L10.35,7.08L10.34,7.15L10.27,7.15L10.22,7.13L10.18,7.07L10.13,7.08L10.17,7.01L10.16,6.91L10.10,6.82L10.06,6.76L10.02,6.70L10.05,6.64L10.09,6.60L10.13,6.55L10.18,6.52L10.23,6.47L10.34,6.41L10.38,6.36L10.37,6.29L10.37,6.23L10.31,6.13L10.25,6.08L10.19,6.08L10.11,6.17L10.05,6.21L9.93,6.24L9.88,6.27L9.84,6.31L9.89,6.29L9.94,6.28L9.88,6.32L9.93,6.30L9.90,6.35L9.86,6.41L9.79,6.39L9.73,6.40L9.67,6.44L9.61,6.43L9.39,6.30L9.33,6.28L9.28,6.28L9.22,6.22L9.16,6.18L9.09,6.19L9.03,6.21L8.97,6.23L8.93,6.27L8.85,6.34L8.76,6.39L8.66,6.50L8.60,6.57L8.57,6.64L8.52,6.69L8.48,6.74L8.42,6.70L8.36,6.72L8.33,6.77L8.28,6.79L8.24,6.86L8.20,6.81L8.14,6.86L8.06,6.84L7.99,6.86L7.93,6.85L7.86,6.87L7.79,6.87L7.75,6.90L7.67,6.91L7.62,6.90L7.55,6.92L7.48,6.97L7.37,6.95L7.29,6.91L7.17,6.86L7.12,6.83L7.07,6.77L7.04,6.72L6.96,6.64L6.94,6.59L6.90,6.53L6.82,6.46L6.77,6.44L6.72,6.44L6.66,6.41L6.60,6.39L6.55,6.36L6.48,6.33L6.30,6.24L6.24,6.19L5.90,6.14L5.76,6.15L5.68,6.11L5.63,6.14L5.60,6.19L5.58,6.28L5.57,6.35L5.59,6.41L5.58,6.47L5.54,6.51L5.51,6.57L5.53,6.64L5.50,6.71L5.46,6.77L5.43,6.73L5.32,6.69L5.23,6.70L5.21,6.75L5.15,6.74L5.09,6.78L5.04,6.78L4.97,6.81L4.93,6.85L4.87,6.84L4.82,6.88L4.78,6.82L4.69,6.79L4.62,6.76L4.56,6.75L4.47,6.71L4.40,6.66L4.35,6.62L4.36,6.56L4.36,6.50L4.32,6.44L4.26,6.45L4.28,6.39L4.33,6.36L4.28,6.30L4.21,6.27L4.16,6.29L4.12,6.33L4.14,6.39L4.09,6.35L4.03,6.30L3.97,6.31L3.91,6.27L3.91,6.21L3.86,6.18L3.81,6.20L3.80,6.14L3.73,6.14L3.75,6.20L3.68,6.19L3.63,6.15L3.60,6.20L3.65,6.26L3.60,6.28L3.54,6.33L3.49,6.40L3.44,6.42L3.39,6.44L3.43,6.40L3.48,6.36L3.43,6.31L3.37,6.32L3.42,6.29L3.48,6.27L3.51,6.21L3.44,6.24L3.38,6.25L3.33,6.26L3.28,6.26L3.22,6.25L3.16,6.24L3.12,6.32L3.06,6.32L2.96,6.33L2.91,6.33L2.86,6.32L2.91,6.28L2.96,6.25L3.02,6.24L3.07,6.22L3.14,6.22L3.20,6.22L3.30,6.19L3.37,6.21L3.42,6.22L3.42,6.15L3.42,6.09L3.47,6.07L3.53,6.07L3.57,6.03L3.66,5.98L3.55,5.96L3.49,5.97L3.39,5.96L3.32,5.97L3.23,6.00L3.18,6.01L3.11,6.00L3.05,6.00L3.00,6.01L2.94,6.00L2.89,5.98L2.84,5.98L2.81,6.03L2.76,5.98L2.75,5.92L2.80,5.89L2.84,5.85L2.89,5.87L2.94,5.91L2.99,5.89L3.01,5.82L3.07,5.80L3.07,5.73L3.02,5.73L2.98,5.77L2.96,5.70L2.91,5.69L2.89,5.63L2.82,5.63L2.77,5.66L2.71,5.64L2.74,5.59L2.74,5.52L2.71,5.47L2.73,5.41L2.67,5.37L2.59,5.35L2.64,5.31L2.73,5.29L2.77,5.24L2.76,5.17L2.77,5.11L2.75,5.01L2.70,5.02L2.65,5.01L2.61,4.96L2.53,4.93L2.47,4.94L2.42,4.92L2.40,4.86L2.36,4.82L2.30,4.79L2.25,4.79L2.23,4.86L2.17,4.88L2.14,4.83L2.08,4.79L2.04,4.75L1.98,4.76L1.90,4.73L1.94,4.68L1.97,4.63L2.00,4.68L2.05,4.66L2.10,4.63L2.08,4.57L2.14,4.57L2.09,4.54L2.03,4.55L2.01,4.46L2.00,4.38L2.04,4.32L2.10,4.33L2.16,4.38L2.20,4.44L2.24,4.48L2.21,4.53L2.23,4.59L2.26,4.67L2.27,4.60L2.33,4.58L2.35,4.64L2.40,4.63L2.49,4.62L2.54,4.60L2.60,4.59L2.67,4.57L2.61,4.55L2.52,4.56L2.46,4.51L2.40,4.47L2.46,4.49L2.41,4.45L2.37,4.40L2.33,4.36L2.32,4.30L2.37,4.26L2.42,4.25L2.48,4.24L2.50,4.17L2.55,4.14L2.60,4.11L2.56,4.08L2.51,4.06L2.45,4.08L2.39,4.05L2.39,3.98L2.44,3.94L2.42,3.88L2.36,3.83L2.32,3.77L2.26,3.73L2.29,3.68L2.39,3.60L2.43,3.55L2.49,3.51L2.50,3.44L2.44,3.42L2.39,3.43L2.27,3.45L2.09,3.48L2.01,3.51L1.95,3.51L1.90,3.53L1.83,3.54L1.76,3.53L1.78,3.45L1.83,3.37L1.84,3.30L1.82,3.24L1.83,3.17L1.83,3.10L1.84,3.04L1.91,3.01L1.96,2.98L2.01,2.94L2.04,2.88L2.04,2.81L2.10,2.79L2.18,2.73L2.31,2.61L2.36,2.59L2.43,2.60L2.49,2.61L2.56,2.61L2.61,2.57L2.67,2.55L2.73,2.55L2.79,2.53L2.83,2.59L2.88,2.66L2.93,2.68L2.99,2.69L3.06,2.67L3.12,2.68L3.17,2.68L3.24,2.65L3.30,2.61L3.24,2.60L3.20,2.57L3.14,2.51L3.18,2.47L3.23,2.48L3.37,2.50L3.43,2.53L3.34,2.58L3.42,2.63L3.50,2.60L3.70,2.60L3.81,2.60L3.90,2.62L3.95,2.63L4.03,2.61L4.10,2.61L4.16,2.62L4.21,2.64L4.28,2.64L4.32,2.58L4.38,2.57L4.32,2.52L4.26,2.52L4.18,2.53L4.10,2.49L4.16,2.41L4.22,2.36L4.49,2.33L4.56,2.31L4.61,2.31L4.66,2.28L4.71,2.29L4.89,2.28L4.99,2.27L5.05,2.26L4.94,2.24L4.88,2.23L4.82,2.22L4.61,2.22L4.55,2.24L4.53,2.18L4.47,2.19L4.47,2.12L4.37,2.09L4.32,2.04L4.27,2.01L4.29,1.94L4.31,1.89L4.33,1.82L4.39,1.77L4.45,1.76L4.61,1.79L4.78,1.82L5.00,1.85L5.22,1.86L5.27,1.84L5.32,1.80L5.39,1.80L5.69,1.88L5.81,1.92L6.03,1.91L6.08,1.91L6.14,1.91L6.20,1.88L6.27,1.83L6.30,1.76L6.28,1.70L6.35,1.68L6.51,1.60L6.69,1.50L6.79,1.45L6.91,1.40L7.01,1.31L7.05,1.27L7.11,1.26L7.17,1.23L7.24,1.20L7.30,1.17L7.36,1.17L7.43,1.15L7.50,1.14L7.59,1.12L7.66,1.08L7.79,1.04L7.93,0.98L8.02,0.99L8.11,0.99L8.17,1.01L8.35,1.02L8.50,1.02L8.78,1.05L8.88,1.03L8.95,1.04L9.09,1.05L9.18,1.04L9.22,1.01L9.28,0.96L9.31,0.90L9.36,0.91L9.42,0.97L9.47,0.97L9.53,0.98L9.47,0.98L9.43,1.03L9.46,1.12L9.53,1.19L9.57,1.25L9.65,1.30L9.70,1.32L9.76,1.35L9.84,1.37L9.89,1.36L9.98,1.34L10.07,1.30L10.14,1.27L10.12,1.34L10.17,1.28L10.23,1.31L10.30,1.37L10.31,1.44L10.30,1.51L10.35,1.58L10.40,1.64L10.46,1.67L10.50,1.72L10.54,1.75L10.60,1.76L10.69,1.70L10.72,1.64L10.77,1.63L10.84,1.63L10.91,1.65L11.04,1.71L11.08,1.76L11.08,1.82L11.15,1.85L11.27,1.85L11.32,1.88L11.39,1.89L11.46,1.93L11.53,1.96L11.58,1.91L11.62,1.87L11.67,1.89L11.72,1.94L11.78,1.98L11.84,2.00L11.99,2.04L12.07,2.06L12.13,2.05L12.18,2.08L12.26,2.08L12.36,2.07L12.40,2.04L12.46,2.03L12.51,2.05L12.56,2.01L12.64,1.98L12.79,1.96L12.85,1.94L12.92,1.92L12.98,1.95L13.04,1.93L13.09,1.90L13.17,1.90L13.25,1.97L13.32,2.00L13.37,1.98L13.42,2.00L13.48,2.04L13.58,2.02L13.65,2.06L13.71,2.08L13.77,2.06L13.82,2.04L14.00,1.95L14.05,1.96L14.10,1.94L14.17,1.91L14.24,1.84L14.30,1.80L14.36,1.81L14.42,1.79L14.47,1.78L14.54,1.73L14.60,1.71L14.69,1.65L14.74,1.63L14.80,1.61L14.82,1.55L14.88,1.50L14.98,1.52L15.04,1.51L15.09,1.54L15.13,1.57L15.18,1.55L15.22,1.51L15.32,1.51L15.37,1.50L15.43,1.50L15.52,1.52L15.67,1.57L15.74,1.52L15.77,1.45L15.82,1.41L15.98,1.42L15.96,1.49L16.01,1.53L16.06,1.53L16.11,1.56L16.15,1.62L16.21,1.66L16.28,1.70L16.24,1.75L16.30,1.76L16.33,1.82L16.42,1.81L16.48,1.81L16.52,1.84Z M3.41,1.03L3.43,1.09L3.37,1.13L3.39,1.20L3.43,1.27L3.47,1.32L3.50,1.39L3.55,1.44L3.60,1.48L3.73,1.55L3.91,1.62L4.17,1.73L4.26,1.75L4.31,1.75L4.32,1.81L4.30,1.87L4.29,1.93L4.24,1.97L4.19,2.00L4.13,2.02L4.08,2.04L3.93,2.03L3.90,1.98L3.87,1.92L3.88,1.99L3.79,1.97L3.74,1.95L3.68,1.93L3.62,1.93L3.57,1.92L3.50,1.93L3.44,1.95L3.39,1.98L3.35,2.03L3.28,2.02L3.21,1.99L3.00,2.01L2.95,2.06L2.93,2.14L2.83,2.24L2.79,2.30L2.72,2.35L2.67,2.37L2.61,2.39L2.55,2.43L2.47,2.45L2.43,2.48L2.35,2.50L2.29,2.54L2.24,2.60L2.21,2.65L2.16,2.69L2.10,2.73L2.06,2.77L2.01,2.79L1.98,2.88L1.93,2.91L1.85,2.95L1.87,2.88L1.92,2.81L1.93,2.74L1.89,2.70L1.91,2.65L1.97,2.63L2.03,2.59L2.12,2.54L2.18,2.50L2.23,2.48L2.28,2.48L2.32,2.44L2.39,2.42L2.38,2.35L2.31,2.35L2.22,2.36L2.13,2.40L2.08,2.38L2.02,2.39L1.96,2.40L1.80,2.40L1.75,2.35L1.74,2.28L1.80,2.25L1.83,2.19L1.88,2.15L1.91,2.10L1.96,2.06L1.98,2.01L1.99,1.95L1.99,1.89L1.97,1.81L1.98,1.75L2.04,1.74L2.10,1.70L2.16,1.65L2.22,1.67L2.24,1.60L2.22,1.53L2.21,1.46L2.21,1.40L2.14,1.38L2.09,1.35L2.04,1.31L1.98,1.29L1.98,1.21L2.11,1.19L2.16,1.16L2.18,1.10L2.20,1.04L2.31,1.04L2.36,1.02L2.42,1.02L2.47,1.00L2.52,0.97L2.57,0.93L2.62,0.92L2.68,0.94L2.72,0.91L2.78,0.91L2.83,0.94L2.87,0.99L2.97,1.06L3.01,1.10L3.05,1.06L3.13,1.03L3.21,1.05L3.24,1.01L3.30,1.01L3.37,1.02Z M1.75,3.16L1.70,3.19L1.74,3.16Z M1.71,2.83L1.62,2.88L1.50,2.90L1.45,2.88L1.46,2.81L1.55,2.78L1.63,2.76L1.68,2.78L1.67,2.84Z M3.11,2.35L3.17,2.36L3.12,2.39L3.06,2.42L3.01,2.40L3.04,2.34L3.11,2.35Z M3.10,2.54L3.04,2.53L3.09,2.51Z M17.65,5.86L17.65,5.92L17.71,5.95L17.75,5.98L17.74,6.05L17.75,6.11L17.71,6.17L17.75,6.22L17.80,6.24L17.86,6.27L17.89,6.33L17.86,6.42L17.86,6.48L17.89,6.53L17.92,6.59L18.02,6.58L18.06,6.62L18.07,6.69L18.07,6.75L18.10,6.84L18.14,6.89L18.12,6.97L18.16,7.02L18.21,7.00L18.26,6.99L18.31,7.01L18.35,7.04L18.40,7.07L18.44,7.12L18.47,7.18L18.53,7.18L18.60,7.16L18.65,7.16L18.70,7.16L18.77,7.14L18.81,7.18L18.89,7.19L18.96,7.17L18.95,7.24L18.90,7.28L18.85,7.28L18.79,7.31L18.73,7.31L18.69,7.36L18.70,7.43L18.68,7.48L18.73,7.62L18.78,7.66L18.81,7.71L18.79,7.77L18.84,7.78L18.82,7.84L18.82,7.90L18.77,7.91L18.71,7.94L18.64,7.91L18.60,7.96L18.59,8.03L18.57,8.09L18.51,8.09L18.48,8.16L18.43,8.18L18.39,8.26L18.42,8.32L18.44,8.38L18.45,8.45L18.36,8.44L18.31,8.42L18.28,8.48L18.26,8.53L18.20,8.56L18.23,8.64L18.29,8.66L18.33,8.71L18.32,8.78L18.31,8.85L18.27,8.90L18.23,8.95L18.20,9.01L18.23,9.06L18.34,9.20L18.38,9.25L18.41,9.32L18.46,9.36L18.49,9.41L18.54,9.37L18.60,9.37L18.63,9.43L18.59,9.49L18.64,9.52L18.71,9.54L18.73,9.60L18.76,9.66L18.79,9.71L18.84,9.76L18.85,9.82L18.81,9.87L18.74,9.88L18.79,9.93L18.77,9.99L18.83,10.05L18.93,10.04L19.02,10.07L19.11,10.11L19.21,10.18L19.31,10.24L19.60,10.51L19.65,10.54L19.71,10.54L19.76,10.51L19.82,10.53L19.88,10.59L19.89,10.65L19.92,10.71L19.96,10.76L19.97,10.83L20.00,10.88L20.06,10.91L20.09,10.97L20.13,11.02L20.16,11.08L20.20,11.13L20.25,11.18L20.26,11.24L20.13,11.59L20.12,11.76L20.12,12.01L20.40,12.01L20.41,12.51L20.50,12.55L20.54,12.59L20.56,12.66L20.63,12.68L20.68,12.72L20.74,12.78L20.73,12.84L20.75,12.90L20.78,12.97L20.81,13.02L20.87,13.04L20.75,13.06L20.69,13.04L20.62,13.01L20.58,12.98L20.50,12.96L20.43,12.96L20.37,13.00L20.36,12.91L20.35,12.97L20.17,12.91L19.90,12.90L19.72,12.97L19.67,13.00L19.57,13.23L19.54,13.29L19.51,13.38L19.45,13.49L19.43,13.56L19.36,13.64L19.31,13.73L19.18,13.88L19.12,13.91L19.06,13.92L19.00,13.94L18.91,13.93L18.85,13.92L18.78,13.92L18.72,13.91L18.66,13.90L18.57,13.90L18.48,13.89L18.39,13.88L18.31,13.87L18.22,13.86L18.13,13.86L18.05,13.85L17.96,13.84L17.89,13.83L17.82,13.83L17.76,13.82L17.69,13.81L17.61,13.81L17.52,13.74L17.44,13.68L17.36,13.61L17.28,13.54L17.20,13.48L17.10,13.39L17.00,13.31L16.91,13.23L16.85,13.19L16.71,13.07L16.61,12.99L16.52,12.91L16.42,12.83L16.34,12.77L16.27,12.70L16.19,12.64L16.12,12.58L16.03,12.51L15.97,12.45L15.87,12.36L15.79,12.29L15.71,12.22L15.64,12.16L15.56,12.10L15.49,12.03L15.42,11.97L15.36,11.92L15.29,11.87L15.21,11.83L15.14,11.79L15.06,11.74L14.99,11.70L14.92,11.65L14.84,11.61L14.77,11.56L14.69,11.52L14.62,11.47L14.54,11.43L14.47,11.38L14.39,11.34L14.32,11.29L14.24,11.25L14.17,11.20L14.10,11.16L14.01,11.11L13.96,11.08L13.62,11.01L13.56,10.99L13.39,10.97L13.22,10.94L13.05,10.91L12.88,10.88L12.98,10.79L12.98,10.69L12.79,10.69L12.73,10.53L12.80,10.50L12.74,10.29L12.70,10.15L12.66,10.01L12.63,9.90L12.60,9.77L12.56,9.63L12.65,9.57L12.75,9.52L12.84,9.46L12.93,9.41L13.03,9.35L13.12,9.30L13.22,9.24L13.31,9.19L13.40,9.13L13.50,9.07L13.59,9.02L13.69,8.96L13.75,8.93L13.87,8.85L13.97,8.80L14.06,8.74L14.19,8.67L14.40,8.61L14.44,8.57L14.47,8.51L14.62,8.23L14.62,8.01L14.61,7.84L14.62,7.76L14.66,7.63L14.66,7.54L14.71,7.45L14.75,7.38L14.76,7.21L14.74,7.14L14.68,7.01L14.65,6.94L14.68,6.67L14.76,6.51L14.86,6.46L15.12,6.41L15.17,6.38L15.28,6.27L15.45,6.09L15.54,6.01L15.59,5.96L15.60,5.89L15.69,5.87L15.76,5.86L15.90,5.67L15.96,5.63L16.06,5.68L16.13,5.67L16.19,5.64L16.25,5.63L16.37,5.69L16.43,5.68L16.50,5.72L16.56,5.76L16.61,5.75L16.68,5.77L16.76,5.77L16.81,5.78L16.91,5.78L16.96,5.71L17.03,5.68L17.16,5.72L17.20,5.76L17.21,5.83L17.16,5.87L17.16,5.93L17.19,6.01L17.24,6.03L17.28,5.98L17.36,5.94L17.43,5.88L17.49,5.83L17.62,5.83Z M17.69,3.36L17.74,3.37L17.79,3.51L17.81,3.57L17.86,3.59L17.91,3.64L17.95,3.69L17.97,3.77L18.09,3.81L18.15,3.84L18.17,3.89L18.22,3.94L18.24,4.01L18.30,4.03L18.38,4.04L18.46,4.05L18.52,4.07L18.70,4.10L18.76,4.13L18.82,4.14L18.87,4.13L18.93,4.09L18.99,4.08L19.12,4.11L19.18,4.10L19.24,4.02L19.32,3.97L19.36,3.91L19.41,3.86L19.46,3.83L19.56,3.81L19.59,3.76L19.63,3.70L19.68,3.67L19.76,3.64L19.83,3.59L19.87,3.54L19.93,3.51L19.99,3.49L20.07,3.44L20.18,3.38L20.23,3.33L20.33,3.32L20.39,3.31L20.44,3.35L20.59,3.51L20.65,3.55L20.69,3.62L20.61,3.66L20.56,3.67L20.51,3.70L20.49,3.77L20.52,3.82L20.57,3.86L20.62,3.88L20.66,3.94L20.64,4.01L20.45,4.05L20.40,4.10L20.41,4.18L20.47,4.22L20.58,4.27L20.59,4.34L20.65,4.39L20.73,4.38L20.77,4.43L20.81,4.48L20.86,4.53L20.89,4.58L20.96,4.61L21.03,4.58L21.09,4.56L21.14,4.57L21.15,4.65L21.14,4.76L21.17,4.92L21.21,5.03L21.20,5.10L21.24,5.16L21.24,5.22L21.31,5.32L21.36,5.38L21.42,5.42L21.56,5.49L21.63,5.51L21.95,5.55L22.02,5.53L22.07,5.54L22.23,5.60L22.29,5.63L22.31,5.72L22.35,5.81L22.40,5.87L22.47,5.92L22.51,5.97L22.63,6.04L22.69,6.07L22.83,6.15L22.95,6.23L23.03,6.26L23.26,6.31L23.41,6.35L23.57,6.38L23.72,6.42L23.88,6.40L24.02,6.35L24.17,6.31L24.32,6.29L24.46,6.26L24.61,6.22L24.75,6.18L25.03,6.12L25.40,6.09L25.46,6.08L25.40,6.11L25.35,6.12L25.27,6.13L25.21,6.12L25.25,6.18L25.38,6.19L25.51,6.18L25.53,6.05L25.52,5.97L25.48,5.91L25.46,5.82L25.44,5.76L25.43,5.66L25.66,5.68L25.71,5.66L25.76,5.65L25.95,5.56L26.02,5.57L26.08,5.54L26.14,5.50L26.18,5.43L26.17,5.37L26.19,5.30L26.23,5.24L26.36,5.16L26.40,5.12L26.44,5.08L26.48,5.04L26.54,5.03L26.60,4.99L26.71,4.92L26.78,4.91L26.95,4.88L27.03,4.89L27.12,4.91L27.17,4.93L27.30,4.91L27.37,4.93L27.45,4.92L27.48,4.86L27.51,4.77L27.57,4.74L27.65,4.74L27.70,4.77L27.78,4.74L27.86,4.76L28.03,4.80L28.08,4.81L28.14,4.78L28.17,4.73L28.23,4.73L28.26,4.79L28.31,4.86L28.34,4.92L28.33,5.01L28.47,5.08L28.53,5.07L28.61,5.08L28.67,5.10L28.72,5.13L28.77,5.13L28.93,5.19L28.99,5.21L29.05,5.22L29.07,5.28L29.10,5.34L29.17,5.35L29.29,5.36L29.34,5.31L29.42,5.34L29.48,5.36L29.55,5.34L29.63,5.33L29.70,5.35L29.75,5.37L29.82,5.41L29.93,5.48L30.00,5.46L30.05,5.51L30.05,5.57L30.06,5.68L30.13,5.74L30.16,5.80L30.21,5.80L30.25,5.85L30.31,5.85L30.43,5.89L30.48,5.93L30.58,5.96L30.64,6.01L30.67,6.07L30.71,6.13L30.80,6.23L30.85,6.32L30.89,6.36L31.03,6.36L31.14,6.36L31.33,6.36L31.43,6.35L31.51,6.35L31.59,6.36L31.61,6.42L31.59,6.49L31.58,6.59L31.59,6.67L31.61,6.73L31.64,6.84L31.63,6.90L31.60,6.95L31.57,7.02L31.62,7.06L31.66,7.12L31.67,7.19L31.66,7.25L31.65,7.33L31.68,7.38L31.70,7.45L31.66,7.51L31.64,7.58L31.61,7.63L31.61,7.70L31.55,7.71L31.54,7.77L31.57,7.86L31.55,7.93L31.53,8.02L31.51,8.08L31.51,8.15L31.47,8.21L31.43,8.26L31.42,8.33L31.37,8.37L31.31,8.43L31.23,8.45L31.22,8.52L31.27,8.56L31.35,8.66L31.29,8.68L31.21,8.69L31.15,8.69L31.10,8.75L31.04,8.81L31.01,8.91L31.02,9.01L31.05,9.16L31.02,9.26L31.04,9.36L31.09,9.41L31.16,9.44L31.22,9.45L31.29,9.44L31.35,9.45L31.32,9.51L31.31,9.56L31.27,9.61L31.21,9.68L31.17,9.73L31.12,9.79L31.08,9.85L31.08,9.94L31.09,10.01L31.12,10.09L31.14,10.18L31.17,10.28L31.20,10.39L31.24,10.51L31.28,10.64L31.31,10.75L31.30,10.83L31.29,10.91L31.26,10.97L31.27,11.03L31.27,11.13L31.28,11.27L31.27,11.34L31.29,11.41L31.30,11.51L31.41,11.53L31.56,11.55L31.70,11.57L31.87,11.60L31.97,11.61L32.03,11.63L32.08,11.68L32.08,11.74L32.11,11.82L32.12,11.88L32.15,11.95L32.15,12.01L32.14,12.12L32.05,12.25L31.94,12.39L31.84,12.51L31.77,12.59L31.68,12.70L31.63,12.76L31.56,12.85L31.43,13.01L31.37,13.08L31.32,13.14L31.39,13.23L31.43,13.28L31.49,13.35L31.55,13.43L31.62,13.51L31.69,13.59L31.74,13.63L31.73,13.71L31.77,13.78L31.79,13.84L31.83,13.87L31.87,13.93L31.88,13.99L31.92,14.08L31.96,14.16L31.98,14.21L32.09,14.33L32.13,14.37L32.18,14.43L32.22,14.47L32.28,14.48L32.34,14.51L32.40,14.52L32.50,14.56L32.61,14.58L32.65,14.62L32.69,14.65L32.77,14.76L32.93,14.74L32.94,14.89L32.93,15.01L32.94,15.07L32.96,15.17L32.98,15.31L32.99,15.45L32.99,15.55L32.94,15.65L32.96,15.71L32.98,15.77L33.03,15.78L33.13,15.77L33.20,15.76L33.29,15.74L33.34,15.77L33.39,15.82L33.42,15.88L33.36,15.90L33.35,16.06L33.37,16.13L33.31,16.15L33.30,16.31L33.27,16.37L33.21,16.37L33.14,16.36L33.07,16.36L33.00,16.36L32.94,16.36L32.90,16.40L32.84,16.39L32.66,16.44L32.61,16.46L32.56,16.49L32.54,16.54L32.52,16.61L32.48,16.64L32.41,16.63L32.38,16.69L32.33,16.70L32.28,16.73L32.18,16.76L32.14,16.83L32.13,16.89L32.12,17.01L32.11,17.09L32.10,17.16L32.05,17.20L32.02,17.27L32.02,17.34L31.99,17.45L31.99,17.53L31.98,17.63L31.98,17.71L31.95,17.80L31.92,17.75L31.88,17.79L31.88,17.85L31.81,17.90L31.66,17.89L31.61,17.86L31.48,17.79L31.34,17.77L31.22,17.74L31.14,17.73L31.11,17.66L31.11,17.59L31.07,17.55L30.98,17.57L30.94,17.62L30.97,17.67L30.91,17.67L30.85,17.65L30.80,17.62L30.78,17.68L30.73,17.66L30.67,17.63L30.60,17.64L30.52,17.67L30.45,17.62L30.31,17.62L30.21,17.60L30.17,17.56L30.09,17.55L29.99,17.57L29.92,17.58L29.87,17.60L29.81,17.60L29.76,17.59L29.71,17.51L29.65,17.47L29.60,17.44L29.52,17.44L29.36,17.41L29.31,17.42L29.25,17.40L29.19,17.40L29.14,17.43L29.08,17.45L29.02,17.45L28.96,17.44L28.92,17.40L28.90,17.34L28.84,17.30L28.77,17.33L28.72,17.36L28.72,17.30L28.67,17.25L28.59,17.27L28.52,17.26L28.43,17.24L28.33,17.22L28.30,17.15L28.27,17.06L28.24,17.00L28.20,16.95L28.20,16.88L28.23,16.83L28.16,16.74L28.16,16.66L28.12,16.60L28.13,16.43L28.07,16.15L28.03,16.10L28.00,16.05L28.03,16.00L27.98,16.00L27.92,15.97L27.95,15.92L27.89,15.88L27.83,15.87L27.72,15.85L27.65,15.83L27.60,15.83L27.53,15.80L27.45,15.80L27.38,15.83L27.33,15.83L27.28,15.86L27.19,15.93L27.15,15.97L27.07,15.99L27.01,16.00L26.94,16.00L26.89,16.03L26.82,16.10L26.83,16.17L26.79,16.22L26.73,16.24L26.62,16.21L26.55,16.22L26.50,16.28L26.45,16.29L26.38,16.35L26.29,16.43L26.20,16.48L26.15,16.49L26.06,16.50L26.01,16.47L25.98,16.42L25.86,16.41L25.82,16.37L25.79,16.31L25.73,16.28L25.65,16.29L25.57,16.27L25.52,16.25L25.44,16.28L25.37,16.30L25.31,16.29L25.26,16.29L25.21,16.25L25.15,16.21L25.07,16.15L25.05,16.06L25.00,16.01L24.71,15.90L24.66,15.88L24.59,15.84L24.52,15.78L24.45,15.72L24.38,15.68L24.31,15.65L24.33,15.59L24.32,15.53L24.29,15.47L24.22,15.39L24.16,15.35L24.01,15.32L23.88,15.20L23.81,15.17L23.71,15.17L23.65,15.16L23.56,15.17L23.46,15.15L23.41,15.12L23.35,15.09L23.31,15.04L23.26,14.98L23.21,14.89L23.18,14.84L23.19,14.76L23.15,14.70L23.11,14.64L23.02,14.47L23.01,14.31L22.98,14.23L22.93,14.18L22.86,14.17L22.79,14.09L22.78,14.01L22.83,14.02L22.88,14.00L22.88,13.93L22.84,13.89L22.79,13.86L22.73,13.86L22.67,13.87L22.64,13.80L22.66,13.75L22.66,13.68L22.67,13.62L22.66,13.55L22.62,13.50L22.54,13.44L22.49,13.37L22.44,13.35L22.39,13.27L22.33,13.16L22.29,13.12L22.22,13.06L22.23,13.00L22.20,12.91L22.17,12.83L22.12,12.78L22.06,12.78L21.76,12.97L21.70,12.98L21.68,12.93L21.67,12.86L21.61,12.83L21.55,12.83L21.50,12.84L21.45,12.79L21.44,12.74L21.39,12.78L21.34,12.74L21.26,12.70L21.23,12.64L21.18,12.62L21.24,12.60L21.30,12.59L21.35,12.61L21.41,12.64L21.47,12.58L21.44,12.53L21.39,12.49L21.34,12.48L21.28,12.48L21.21,12.50L21.25,12.54L21.20,12.58L21.15,12.63L21.13,12.68L21.17,12.73L21.20,12.79L21.19,12.87L21.19,12.94L21.15,12.98L21.09,12.97L21.00,12.97L20.95,12.94L20.96,13.01L20.92,13.04L20.86,13.04L20.81,13.02L20.78,12.97L20.75,12.90L20.72,12.85L20.75,12.80L20.70,12.75L20.66,12.69L20.60,12.68L20.55,12.62L20.52,12.56L20.41,12.54L20.41,12.02L20.12,12.01L20.12,11.76L20.13,11.59L20.26,11.24L20.25,11.18L20.20,11.14L20.17,11.09L20.13,11.02L20.09,10.97L20.06,10.91L20.00,10.88L19.97,10.83L19.96,10.76L19.93,10.71L19.89,10.66L19.90,10.60L19.85,10.55L19.78,10.52L19.72,10.54L19.65,10.54L19.60,10.51L19.34,10.28L19.25,10.21L19.13,10.13L19.02,10.07L18.93,10.04L18.83,10.05L18.76,10.01L18.81,9.95L18.74,9.92L18.79,9.88L18.84,9.83L18.84,9.77L18.79,9.71L18.76,9.66L18.73,9.60L18.71,9.54L18.67,9.50L18.61,9.52L18.63,9.46L18.60,9.40L18.54,9.37L18.49,9.41L18.46,9.36L18.41,9.32L18.38,9.25L18.34,9.20L18.26,9.06L18.21,9.06L18.22,8.98L18.26,8.91L18.30,8.87L18.30,8.81L18.33,8.74L18.31,8.67L18.26,8.67L18.20,8.56L18.26,8.53L18.28,8.48L18.28,8.41L18.34,8.43L18.42,8.44L18.44,8.38L18.42,8.32L18.39,8.26L18.41,8.21L18.46,8.17L18.49,8.11L18.56,8.11L18.59,8.05L18.58,7.98L18.61,7.93L18.67,7.93L18.73,7.92L18.80,7.91L18.82,7.84L18.84,7.78L18.79,7.77L18.81,7.71L18.78,7.66L18.73,7.62L18.68,7.53L18.69,7.47L18.70,7.41L18.70,7.34L18.79,7.31L18.85,7.28L18.90,7.28L18.95,7.24L18.97,7.18L18.91,7.19L18.86,7.20L18.81,7.18L18.75,7.14L18.65,7.16L18.60,7.16L18.54,7.19L18.49,7.19L18.44,7.12L18.40,7.07L18.35,7.04L18.31,7.01L18.26,6.99L18.21,7.00L18.16,7.02L18.12,6.97L18.15,6.91L18.11,6.86L18.11,6.79L18.07,6.74L18.07,6.65L18.04,6.58L17.97,6.60L17.91,6.58L17.88,6.52L17.84,6.47L17.87,6.39L17.88,6.31L17.85,6.26L17.79,6.23L17.72,6.22L17.74,6.13L17.75,6.07L17.74,6.01L17.71,5.95L17.66,5.93L17.65,5.86L17.64,5.78L17.68,5.74L17.61,5.66L17.56,5.62L17.53,5.58L17.48,5.55L17.48,5.49L17.50,5.42L17.46,5.37L17.50,5.31L17.48,5.25L17.41,5.22L17.36,5.19L17.32,5.15L17.27,5.12L17.22,5.13L17.18,5.09L17.19,5.03L17.23,4.97L17.26,4.91L17.30,4.86L17.32,4.80L17.34,4.73L17.39,4.68L17.36,4.62L17.31,4.64L17.25,4.62L17.24,4.56L17.26,4.49L17.25,4.40L17.22,4.35L17.21,4.28L17.24,4.19L17.19,4.14L17.16,4.09L17.13,4.02L17.15,3.97L17.17,3.88L17.13,3.83L17.07,3.80L17.06,3.74L17.04,3.67L17.02,3.61L17.08,3.60L17.15,3.59L17.23,3.62L17.31,3.60L17.34,3.55L17.35,3.48L17.38,3.37L17.39,3.31L17.48,3.23L17.54,3.27L17.60,3.30L17.69,3.36Z M25.53,16.51L25.47,16.51L25.42,16.46L25.47,16.44L25.53,16.45L25.53,16.51Z M24.92,16.20L24.84,16.20L24.78,16.16L24.87,16.17L24.94,16.17Z M27.47,16.17L27.51,16.11L27.49,16.17Z M27.38,16.00L27.43,16.02L27.36,16.08L27.33,16.14L27.28,16.19L27.24,16.23L27.18,16.29L27.12,16.28L27.04,16.29L26.99,16.31L26.93,16.31L26.87,16.35L26.79,16.40L26.72,16.41L26.67,16.43L26.62,16.45L26.59,16.40L26.63,16.35L26.69,16.33L26.81,16.29L26.88,16.25L26.95,16.22L27.01,16.20L27.01,16.11L26.98,16.07L27.11,16.09L27.23,16.02L27.35,16.00Z M27.60,15.89L27.61,15.95L27.59,15.90Z M22.36,13.73L22.38,13.79L22.35,13.74Z M27.11,16.32L27.09,16.39L27.10,16.32Z M22.79,18.25L22.83,18.20L22.82,18.11L22.78,18.01L22.79,17.95L22.75,17.87L22.74,17.81L22.75,17.75L22.75,17.68L22.74,17.58L22.75,17.52L22.82,17.53L22.80,17.47L22.80,17.41L22.82,17.35L22.84,17.41L22.86,17.47L22.87,17.40L22.92,17.37L22.87,17.36L22.86,17.27L22.87,17.21L22.92,17.22L22.91,17.14L22.93,17.08L22.94,17.02L22.97,16.97L23.01,16.94L23.06,16.92L23.10,16.86L23.16,16.84L23.23,16.88L23.24,16.94L23.28,16.99L23.30,17.05L23.37,17.05L23.43,17.09L23.46,17.23L23.41,17.26L23.38,17.31L23.42,17.37L23.37,17.43L23.38,17.55L23.39,17.62L23.39,17.69L23.45,17.72L23.47,17.78L23.47,17.86L23.46,17.97L23.45,18.05L23.41,18.10L23.35,18.24L23.33,18.32L23.28,18.36L23.25,18.42L23.24,18.35L23.19,18.34L23.14,18.36L23.08,18.42L22.98,18.44L22.93,18.43L22.85,18.36L22.79,18.25Z M22.79,18.25L22.85,18.36L22.89,18.41L22.98,18.44L23.08,18.42L23.13,18.37L23.19,18.38L23.20,18.44L23.26,18.42L23.29,18.37L23.33,18.39L23.32,18.46L23.29,18.51L23.24,18.55L23.21,18.60L23.19,18.66L23.24,18.70L23.30,18.68L23.36,18.69L23.40,18.73L23.44,18.78L23.44,18.87L23.50,18.99L23.55,19.05L23.59,19.11L23.64,19.18L23.68,19.24L23.72,19.30L23.77,19.36L23.81,19.42L23.86,19.49L23.90,19.55L23.95,19.61L23.99,19.67L24.03,19.73L24.08,19.80L24.12,19.86L24.17,19.92L24.21,19.98L24.26,20.05L24.43,20.09L24.55,20.11L24.67,20.12L24.79,20.14L24.90,20.16L25.02,20.17L25.14,20.19L25.26,20.21L25.38,20.23L25.50,20.24L25.61,20.26L25.73,20.28L25.85,20.29L25.97,20.31L26.09,20.33L26.21,20.35L26.32,20.36L26.44,20.38L26.51,20.30L26.56,20.39L26.63,20.52L26.70,20.64L26.77,20.77L26.84,20.89L26.88,20.98L26.86,21.13L26.83,21.22L26.81,21.31L26.78,21.42L26.74,21.56L26.70,21.71L26.65,21.86L26.61,22.03L26.56,22.19L26.52,22.35L26.47,22.50L26.44,22.63L26.40,22.75L26.38,22.83L26.36,22.91L26.33,23.00L26.20,23.05L26.06,23.11L25.91,23.17L25.77,23.23L25.62,23.28L25.48,23.34L25.33,23.40L25.19,23.45L25.04,23.51L24.89,23.57L24.75,23.63L24.60,23.68L24.46,23.74L24.31,23.80L24.17,23.85L24.02,23.91L23.88,23.97L23.78,24.00L23.65,24.03L23.51,24.05L23.38,24.07L23.24,24.09L23.10,24.11L22.97,24.13L22.83,24.15L22.69,24.18L22.56,24.20L22.42,24.22L22.29,24.24L22.15,24.26L22.01,24.28L21.88,24.31L21.74,24.33L21.61,24.35L21.47,24.37L21.36,24.39L21.28,24.42L21.12,24.51L20.97,24.60L20.81,24.69L20.67,24.77L20.56,24.84L20.47,24.94L20.39,25.05L20.26,25.24L20.13,25.42L20.05,25.54L20.00,25.69L19.94,25.87L19.82,25.97L19.71,26.04L19.66,26.06L19.55,26.05L19.45,25.93L19.39,25.83L19.34,25.75L19.11,25.75L18.97,25.78L18.77,25.75L18.61,25.73L18.40,25.71L18.22,25.69L18.04,25.58L17.85,25.57L17.72,25.57L17.55,25.57L17.48,25.60L17.40,25.58L17.34,25.58L17.26,25.59L17.20,25.61L17.14,25.60L17.09,25.65L17.02,25.63L16.96,25.68L16.91,25.69L16.84,25.65L16.77,25.65L16.68,25.54L16.58,25.49L16.52,25.48L16.41,25.54L16.33,25.61L16.29,25.67L16.36,25.71L16.32,25.76L16.28,25.81L16.26,25.89L16.27,25.97L16.25,26.05L16.26,26.13L16.32,26.18L16.29,26.26L16.30,26.34L16.23,26.32L16.21,26.38L16.19,26.45L16.13,26.50L16.07,26.52L16.06,26.58L16.01,26.61L15.96,26.58L15.93,26.48L15.92,26.39L15.93,26.33L15.90,26.28L15.86,26.21L15.81,26.16L15.76,26.12L15.77,26.06L15.76,26.00L15.72,25.96L15.67,25.93L15.65,25.86L15.60,25.82L15.63,25.88L15.62,25.96L15.60,25.89L15.59,25.83L15.57,25.69L15.57,25.60L15.55,25.54L15.43,25.43L15.39,25.37L15.34,25.33L15.30,25.28L15.25,25.24L15.19,25.18L15.14,25.16L15.10,25.12L15.03,25.04L15.00,24.98L14.97,24.92L14.95,24.86L14.91,24.81L14.88,24.76L14.85,24.69L14.83,24.61L14.82,24.54L14.77,24.47L14.73,24.42L14.68,24.41L14.65,24.34L14.63,24.29L14.65,24.20L14.63,24.14L14.59,24.10L14.57,24.02L14.59,23.96L14.56,23.90L14.51,23.87L14.48,23.82L14.49,23.75L14.46,23.70L14.41,23.66L14.40,23.60L14.41,23.54L14.33,23.47L14.27,23.40L14.28,23.31L14.23,23.22L14.17,23.21L14.13,23.18L14.08,23.11L14.06,23.06L14.02,23.02L13.97,22.98L13.93,22.93L13.87,22.91L13.80,22.84L13.74,22.80L13.70,22.75L13.64,22.71L13.57,22.72L13.52,22.69L13.56,22.74L13.45,22.68L13.40,22.65L13.32,22.56L13.25,22.45L13.21,22.38L13.17,22.29L13.14,22.24L13.11,22.19L13.06,22.14L13.04,22.08L12.98,22.03L12.97,21.97L12.91,21.90L12.88,21.84L12.86,21.74L12.82,21.68L12.89,21.62L12.89,21.54L12.87,21.46L12.83,21.42L12.83,21.36L12.82,21.29L12.79,21.24L12.76,21.18L12.71,21.08L12.69,20.99L12.75,21.00L12.78,20.93L12.79,20.87L12.78,20.79L12.81,20.73L12.83,20.67L12.87,20.61L12.81,20.63L12.82,20.56L12.82,20.45L12.78,20.38L12.76,20.32L12.74,20.26L12.72,20.18L12.73,20.25L12.69,20.18L12.62,20.07L12.68,20.14L12.67,20.07L12.62,20.02L12.56,19.96L12.58,19.88L12.54,19.82L12.50,19.76L12.48,19.70L12.46,19.63L12.44,19.56L12.43,19.49L12.41,19.43L12.36,19.46L12.32,19.36L12.30,19.29L12.28,19.22L12.24,19.19L12.21,19.13L12.16,19.11L12.12,19.06L12.07,19.03L12.02,18.99L11.97,18.93L11.91,18.91L11.85,18.86L11.86,18.79L11.83,18.85L11.75,18.82L11.70,18.78L11.65,18.73L11.60,18.71L11.55,18.75L11.49,18.73L11.44,18.66L11.41,18.60L11.32,18.38L11.27,18.30L11.24,18.23L11.19,18.18L11.24,18.15L11.27,18.08L11.29,18.01L11.26,17.95L11.27,17.87L11.25,17.81L11.20,17.76L11.15,17.70L11.13,17.65L11.10,17.59L11.07,17.51L11.05,17.45L11.01,17.39L10.96,17.33L10.92,17.27L10.86,17.28L10.82,17.25L10.79,17.18L10.76,17.12L10.80,17.06L10.79,16.98L10.74,16.94L10.69,16.93L10.64,16.89L10.58,16.75L10.53,16.67L10.46,16.50L10.40,16.37L10.35,16.32L10.31,16.27L10.27,16.20L10.23,16.09L10.18,16.05L10.13,16.00L10.06,15.91L10.03,15.85L10.02,15.76L9.94,15.68L9.89,15.64L9.85,15.57L9.79,15.48L9.78,15.40L9.74,15.34L9.70,15.25L9.66,15.21L9.63,15.14L9.58,15.07L9.50,15.00L9.53,14.95L9.48,14.93L9.39,14.88L9.34,14.89L9.29,14.92L9.23,14.91L9.18,14.92L9.14,14.89L9.08,14.86L9.07,14.93L9.02,14.97L9.02,14.90L9.03,14.84L9.06,14.79L9.07,14.73L9.11,14.67L9.13,14.59L9.15,14.53L9.18,14.47L9.17,14.38L9.18,14.27L9.20,14.22L9.21,14.15L9.21,14.08L9.23,13.99L9.24,13.91L9.26,13.83L9.28,13.76L9.30,13.70L9.40,13.67L9.50,13.68L9.63,13.71L9.75,13.73L9.88,13.75L9.98,13.77L10.13,13.79L10.21,13.81L10.35,13.72L10.44,13.65L10.54,13.56L10.61,13.51L10.66,13.41L10.71,13.32L10.75,13.25L10.80,13.17L10.84,13.13L10.92,13.12L10.99,13.10L11.11,13.08L11.24,13.05L11.35,13.03L11.45,13.01L11.51,12.89L11.53,12.83L11.56,12.75L11.59,12.69L11.71,12.60L11.82,12.54L11.88,12.51L11.84,12.45L11.75,12.34L11.66,12.23L11.56,12.12L11.47,12.01L11.35,11.87L11.24,11.75L11.13,11.63L11.02,11.51L11.23,11.45L11.44,11.38L11.65,11.32L11.70,11.30L11.86,11.26L12.05,11.20L12.24,11.14L12.43,11.09L12.62,11.03L12.72,11.01L12.85,10.90L13.05,10.91L13.22,10.94L13.39,10.97L13.56,10.99L13.62,11.01L13.91,11.06L14.01,11.11L14.10,11.16L14.17,11.20L14.24,11.25L14.32,11.29L14.39,11.34L14.47,11.38L14.54,11.43L14.62,11.47L14.69,11.52L14.77,11.56L14.84,11.61L14.92,11.65L14.99,11.70L15.06,11.74L15.14,11.79L15.21,11.83L15.29,11.87L15.36,11.92L15.42,11.97L15.49,12.03L15.56,12.10L15.64,12.16L15.71,12.22L15.79,12.29L15.87,12.36L15.95,12.43L16.03,12.51L16.12,12.58L16.19,12.64L16.27,12.70L16.34,12.77L16.42,12.83L16.52,12.91L16.61,12.99L16.71,13.07L16.81,13.15L16.91,13.23L17.00,13.31L17.10,13.39L17.20,13.48L17.28,13.54L17.36,13.61L17.44,13.68L17.52,13.74L17.59,13.80L17.69,13.81L17.76,13.82L17.82,13.83L17.89,13.83L17.96,13.84L18.05,13.85L18.13,13.86L18.22,13.86L18.31,13.87L18.39,13.88L18.48,13.89L18.57,13.90L18.66,13.90L18.72,13.91L18.78,13.92L18.85,13.92L18.91,13.93L19.00,13.94L19.06,13.92L19.12,13.91L19.25,13.92L19.34,13.93L19.44,13.94L19.53,13.95L19.62,13.96L19.70,13.98L19.79,13.99L19.87,14.00L19.93,14.02L19.97,14.10L20.02,14.23L20.02,14.31L20.04,14.37L20.09,14.42L20.16,14.47L20.31,14.46L20.47,14.46L20.62,14.46L20.77,14.46L20.82,14.50L20.83,14.58L20.84,14.65L20.93,14.78L20.91,14.85L20.95,14.93L21.00,14.98L21.06,14.99L21.03,15.04L21.08,15.09L21.15,15.16L21.14,15.23L21.08,15.24L21.10,15.17L21.07,15.26L21.09,15.31L21.14,15.32L21.14,15.39L21.21,15.38L21.26,15.41L21.30,15.46L21.37,15.46L21.43,15.45L21.49,15.50L21.52,15.55L21.43,15.54L21.35,15.56L21.40,15.58L21.45,15.58L21.44,15.66L21.50,15.64L21.52,15.71L21.52,15.78L21.58,15.78L21.58,15.84L21.65,15.85L21.70,15.87L21.74,15.81L21.73,15.88L21.77,15.93L21.82,16.01L21.88,16.06L21.96,16.11L22.01,16.14L22.08,16.16L22.14,16.24L22.22,16.32L22.13,16.30L22.11,16.25L22.09,16.32L22.10,16.41L22.13,16.51L22.17,16.55L22.24,16.57L22.28,16.63L22.28,16.78L22.26,16.84L22.23,16.90L22.22,16.96L22.20,16.90L22.16,16.84L22.12,16.80L22.09,16.85L22.11,16.91L22.10,16.98L22.15,16.99L22.19,17.02L22.19,17.09L22.22,17.18L22.29,17.28L22.32,17.37L22.29,17.31L22.25,17.28L22.30,17.38L22.40,17.52L22.45,17.54L22.50,17.56L22.52,17.63L22.54,17.69L22.54,17.76L22.57,17.83L22.57,17.92L22.62,17.96L22.65,18.00L22.68,18.09L22.72,18.16L22.73,18.22L22.76,18.27Z M15.46,26.29L15.45,26.37L15.39,26.37L15.37,26.31L15.31,26.32L15.24,26.31L15.19,26.27L15.15,26.20L15.11,26.16L15.17,26.16L15.20,26.23L15.25,26.25L15.31,26.26L15.34,26.20L15.39,26.21L15.42,26.26Z M15.23,26.21L15.18,26.15L15.20,26.09L15.24,26.05L15.18,26.00L15.23,26.01L15.25,26.08L15.29,26.15L15.30,26.23L15.25,26.21Z M21.73,15.65L21.79,15.67L21.74,15.69L21.69,15.66L21.64,15.69L21.68,15.64L21.73,15.65Z M11.07,17.58L11.02,17.55L11.07,17.58Z M11.00,17.58L10.96,17.64L10.92,17.59L10.88,17.55L10.95,17.56L11.00,17.58Z M10.87,17.50L10.83,17.47L10.78,17.45L10.86,17.46L10.91,17.51L10.95,17.56L10.90,17.52Z M10.78,17.43L10.68,17.40L10.62,17.38L10.65,17.31L10.67,17.37L10.72,17.41L10.78,17.43Z M10.66,17.27L10.66,17.20L10.70,17.14L10.67,17.20L10.71,17.25Z M20.36,13.01L20.38,13.08L20.39,13.14L20.42,13.22L20.47,13.26L20.50,13.35L20.54,13.40L20.55,13.46L20.50,13.45L20.44,13.42L20.37,13.42L20.32,13.47L20.27,13.50L20.22,13.56L20.16,13.61L20.22,13.63L20.26,13.68L20.32,13.64L20.37,13.61L20.42,13.65L20.49,13.65L20.48,13.71L20.49,13.79L20.51,13.85L20.53,13.98L20.59,14.08L20.64,14.12L20.67,14.21L20.73,14.26L20.73,14.32L20.73,14.40L20.77,14.46L20.62,14.46L20.47,14.46L20.31,14.46L20.16,14.47L20.11,14.44L20.06,14.39L20.02,14.31L20.02,14.23L19.97,14.10L19.93,14.02L19.87,14.00L19.79,13.99L19.70,13.98L19.62,13.96L19.53,13.95L19.44,13.94L19.34,13.93L19.25,13.92L19.15,13.90L19.31,13.73L19.36,13.64L19.41,13.58L19.45,13.49L19.51,13.38L19.54,13.30L19.57,13.23L19.64,13.04L19.72,12.97L19.85,12.91L20.12,12.90L20.36,13.01Z M20.69,13.54L20.73,13.58L20.67,13.57Z M20.70,13.29L20.66,13.35L20.59,13.40L20.54,13.37L20.51,13.30L20.47,13.23L20.48,13.17L20.48,13.11L20.53,13.12L20.57,13.07L20.52,13.05L20.69,13.21L20.70,13.29Z M20.47,13.00L20.42,13.03L20.45,12.98Z M9.87,10.32L9.93,10.29L9.98,10.26L10.11,10.29L10.15,10.32L10.20,10.34L10.21,10.41L10.25,10.47L10.31,10.48L10.39,10.51L10.44,10.54L10.52,10.61L10.59,10.63L10.76,10.66L10.82,10.67L10.87,10.69L11.03,10.59L11.16,10.51L11.26,10.45L11.40,10.35L11.47,10.31L11.55,10.26L11.69,10.17L11.84,10.07L11.95,10.01L12.10,9.91L12.17,9.87L12.35,9.76L12.56,9.63L12.60,9.77L12.63,9.90L12.66,10.01L12.70,10.15L12.74,10.29L12.80,10.50L12.73,10.52L12.77,10.67L12.95,10.65L13.00,10.76L12.87,10.87L12.75,10.99L12.62,11.03L12.43,11.09L12.24,11.14L12.05,11.20L11.89,11.25L11.70,11.30L11.65,11.32L11.44,11.38L11.23,11.45L11.05,11.50L11.13,11.63L11.24,11.75L11.35,11.87L11.46,11.99L11.56,12.12L11.66,12.23L11.75,12.34L11.84,12.45L11.88,12.50L11.82,12.54L11.71,12.60L11.62,12.65L11.56,12.75L11.53,12.83L11.51,12.89L11.47,12.99L11.35,13.03L11.24,13.05L11.11,13.08L10.99,13.10L10.92,13.12L10.84,13.13L10.80,13.17L10.75,13.25L10.71,13.32L10.66,13.41L10.61,13.51L10.54,13.56L10.44,13.65L10.35,13.72L10.26,13.80L10.13,13.79L10.03,13.78L9.88,13.75L9.75,13.73L9.63,13.71L9.50,13.68L9.40,13.67L9.31,13.65L9.32,13.55L9.35,13.48L9.32,13.41L9.34,13.35L9.35,13.27L9.39,13.16L9.40,13.08L9.41,13.02L9.46,12.91L9.47,12.85L9.46,12.78L9.47,12.69L9.49,12.62L9.48,12.53L9.52,12.38L9.57,12.28L9.59,12.22L9.62,12.16L9.63,12.09L9.68,12.04L9.68,11.98L9.72,11.90L9.71,11.82L9.69,11.74L9.71,11.68L9.73,11.60L9.74,11.51L9.74,11.43L9.76,11.36L9.80,11.26L9.81,11.18L9.80,11.08L9.81,11.01L9.79,10.94L9.82,10.86L9.84,10.76L9.83,10.70L9.82,10.63L9.82,10.57L9.84,10.51L9.83,10.45L9.83,10.38L9.85,10.33Z M8.71,11.79L8.75,11.92L8.78,12.01L8.81,12.09L8.86,12.21L8.91,12.35L8.93,12.43L8.95,12.51L8.95,12.58L9.00,12.64L9.04,12.74L9.09,12.89L9.12,12.98L9.13,13.06L9.17,13.16L9.20,13.26L9.22,13.36L9.22,13.43L9.25,13.50L9.22,13.55L9.19,13.60L9.16,13.65L9.13,13.71L9.12,13.80L9.09,13.87L9.07,13.97L9.05,14.03L9.05,14.14L9.03,14.20L9.03,14.26L9.00,14.33L8.95,14.43L8.95,14.49L8.90,14.54L8.88,14.62L8.85,14.68L8.86,14.74L8.88,14.81L8.87,14.89L8.86,15.02L8.82,15.06L8.78,15.11L8.74,15.14L8.72,15.20L8.72,15.26L8.68,15.22L8.57,15.20L8.49,15.11L8.43,15.06L8.38,15.04L8.34,15.01L8.30,14.95L8.26,14.91L8.22,14.85L8.18,14.77L8.14,14.72L8.02,14.63L7.97,14.57L7.91,14.51L7.88,14.46L7.84,14.41L7.82,14.32L7.84,14.26L7.82,14.19L7.80,14.12L7.80,14.06L7.80,14.00L7.75,13.96L7.71,13.91L7.67,13.86L7.61,13.80L7.56,13.77L7.54,13.70L7.50,13.64L7.47,13.57L7.43,13.53L7.42,13.46L7.38,13.40L7.38,13.34L7.39,13.28L7.36,13.22L7.31,13.18L7.32,13.11L7.29,13.05L7.29,12.99L7.29,13.06L7.24,13.04L7.20,13.08L7.23,13.13L7.15,13.25L7.11,13.31L7.10,13.39L7.12,13.46L7.17,13.50L7.22,13.56L7.27,13.60L7.31,13.68L7.33,13.74L7.36,13.88L7.34,13.94L7.33,14.03L7.37,14.08L7.40,14.14L7.44,14.20L7.49,14.22L7.54,14.40L7.59,14.45L7.63,14.50L7.69,14.59L7.72,14.63L7.75,14.69L7.78,14.74L7.82,14.79L7.86,14.84L7.92,14.90L7.95,14.95L8.03,14.98L8.09,15.04L8.12,15.09L8.14,15.15L8.15,15.21L8.11,15.17L8.05,15.17L8.08,15.22L8.11,15.28L8.15,15.34L8.10,15.32L8.11,15.38L8.12,15.44L8.18,15.49L8.20,15.55L8.23,15.64L8.30,15.71L8.35,15.74L8.36,15.81L8.36,15.88L8.40,15.92L8.42,15.99L8.45,16.06L8.49,16.09L8.50,16.16L8.45,16.20L8.44,16.32L8.49,16.37L8.52,16.42L8.56,16.49L8.59,16.57L8.62,16.63L8.65,16.69L8.72,16.86L8.76,16.91L8.79,17.00L8.85,17.10L8.93,17.23L8.96,17.27L9.04,17.43L9.07,17.52L9.09,17.60L9.13,17.65L9.18,17.75L9.23,17.86L9.30,18.00L9.31,18.06L9.34,18.11L9.35,18.18L9.40,18.24L9.44,18.34L9.47,18.41L9.47,18.50L9.55,18.60L9.67,18.69L9.71,18.81L9.77,18.89L9.85,18.92L9.89,19.00L9.96,19.01L10.01,19.08L9.94,19.08L9.88,19.07L9.83,19.04L9.77,19.05L9.77,19.13L9.75,19.20L9.78,19.26L9.78,19.36L9.78,19.44L9.77,19.50L9.80,19.56L9.82,19.62L9.82,19.72L9.84,19.79L9.88,19.86L9.71,20.02L9.53,20.21L9.64,20.10L9.76,19.98L9.88,19.86L9.91,19.93L9.92,20.02L9.98,20.12L10.01,20.16L10.06,20.22L10.10,20.26L10.15,20.29L10.23,20.31L10.30,20.32L10.37,20.35L10.43,20.41L10.45,20.48L10.49,20.53L10.54,20.57L10.57,20.64L10.63,20.67L10.68,20.70L10.73,20.75L10.81,20.83L10.86,20.84L10.90,20.89L10.94,20.93L10.96,20.98L10.75,21.00L10.55,21.00L10.36,21.00L10.16,21.00L9.96,21.00L9.76,21.00L9.57,21.00L9.37,21.00L9.17,21.00L8.97,21.00L8.77,21.00L8.58,21.00L8.38,21.00L8.18,21.00L7.98,21.00L7.80,21.00L7.70,21.00L7.61,21.00L7.52,21.00L7.44,21.00L7.35,21.00L7.26,21.00L7.18,21.00L7.09,21.00L7.00,21.00L6.92,21.00L6.83,21.00L6.74,21.00L6.65,21.00L6.57,21.00L6.48,21.00L6.39,21.00L6.32,21.00L6.35,20.92L6.37,20.85L6.34,20.78L6.28,20.79L6.22,20.90L6.17,21.00L6.05,21.01L5.96,21.01L5.88,21.01L5.80,21.01L5.71,21.01L5.63,21.01L5.55,21.01L5.47,21.01L5.38,21.01L5.30,21.01L5.22,21.01L5.14,21.01L5.05,21.01L4.97,21.01L4.89,21.01L4.81,21.01L4.72,21.01L4.64,21.01L4.56,21.01L4.47,21.01L4.39,21.01L4.31,21.01L4.23,21.01L4.14,21.01L4.06,21.01L3.98,21.01L3.89,21.01L3.81,21.01L3.73,21.01L3.65,21.01L3.56,21.01L3.48,21.01L3.40,21.01L3.32,21.01L3.23,21.01L3.15,21.01L3.07,21.01L2.98,21.01L2.90,21.01L2.82,21.01L2.74,21.01L2.65,21.01L2.57,21.01L2.49,21.01L2.41,21.01L2.32,21.00L2.24,21.00L2.16,21.00L2.07,21.00L1.99,21.00L1.91,21.00L1.83,21.00L1.74,21.00L1.66,21.00L1.58,21.00L1.50,21.00L1.41,21.00L1.33,21.00L1.25,21.00L1.17,21.00L1.08,21.00L1.00,21.00L0.92,21.00L0.83,21.00L0.83,20.71L0.83,20.42L0.83,20.13L0.83,19.84L0.83,19.55L0.83,19.25L0.83,18.96L0.83,18.67L0.83,18.38L0.83,18.09L0.83,17.79L0.83,17.50L0.83,17.21L0.83,16.92L0.83,16.63L0.83,16.34L0.83,16.14L0.83,15.95L0.83,15.86L0.83,15.52L0.83,15.37L0.83,14.98L0.83,14.90L0.83,14.51L0.83,14.11L0.83,13.94L0.83,13.82L0.81,13.71L0.74,13.53L0.73,13.46L0.74,13.39L0.73,13.32L0.68,13.25L0.69,13.15L0.62,12.92L0.59,12.86L0.60,12.78L0.63,12.72L0.68,12.64L0.75,12.54L0.78,12.47L0.81,12.38L0.83,12.28L0.85,12.21L0.80,12.09L0.76,11.98L0.73,11.85L0.73,11.77L0.72,11.69L0.73,11.62L0.87,11.51L0.90,11.42L0.98,11.34L0.99,11.42L1.03,11.47L1.11,11.49L1.16,11.49L1.23,11.48L1.39,11.44L1.55,11.39L1.67,11.38L2.01,11.48L2.25,11.51L2.32,11.52L2.40,11.55L2.47,11.56L2.54,11.56L2.60,11.59L2.65,11.61L2.71,11.62L2.76,11.62L2.82,11.62L2.86,11.67L2.88,11.73L2.93,11.78L3.01,11.79L3.07,11.80L3.16,11.81L3.26,11.76L3.31,11.84L3.34,11.90L3.53,11.91L3.60,11.93L3.65,11.94L3.72,11.92L3.78,11.92L3.84,11.95L4.02,12.02L4.07,12.04L4.10,12.08L4.27,12.17L4.41,12.17L4.55,12.10L4.68,12.04L4.72,12.01L4.77,11.98L4.90,11.88L4.96,11.85L4.99,11.79L5.06,11.75L5.11,11.71L5.16,11.67L5.22,11.73L5.24,11.78L5.29,11.77L5.33,11.73L5.25,11.73L5.31,11.70L5.37,11.65L5.40,11.58L5.39,11.50L5.42,11.55L5.41,11.49L5.46,11.53L5.52,11.54L5.68,11.50L5.93,11.41L5.84,11.45L5.77,11.49L5.69,11.54L5.63,11.57L5.58,11.58L5.63,11.61L5.69,11.58L5.74,11.58L5.80,11.57L5.85,11.57L5.90,11.54L5.96,11.53L6.01,11.48L5.97,11.42L6.03,11.39L6.14,11.42L6.25,11.47L6.31,11.51L6.40,11.55L6.46,11.56L6.59,11.52L6.66,11.47L6.73,11.47L6.77,11.51L6.80,11.55L6.85,11.62L6.91,11.66L6.96,11.70L6.86,11.65L6.81,11.61L6.77,11.56L6.75,11.51L6.71,11.47L6.69,11.54L6.66,11.58L6.68,11.65L6.63,11.64L6.60,11.70L6.65,11.73L6.69,11.77L6.74,11.81L6.79,11.77L6.83,11.81L6.81,11.87L6.86,11.89L6.89,11.95L6.93,11.91L6.99,11.89L7.04,11.86L7.05,11.80L7.03,11.74L6.98,11.72L7.06,11.72L7.11,11.77L7.16,11.80L7.21,11.85L7.26,11.91L7.31,11.94L7.38,11.94L7.45,11.92L7.52,11.88L7.57,11.85L7.51,11.90L7.44,11.93L7.37,11.95L7.42,11.96L7.51,11.92L7.56,11.90L7.62,11.90L7.66,11.94L7.70,11.90L7.65,11.90L7.68,11.84L7.73,11.81L7.77,11.87L7.77,11.94L7.83,11.94L7.87,11.90L7.98,11.89L8.02,11.85L8.07,11.87L8.14,11.88L8.20,11.88L8.38,11.84L8.54,11.77L8.67,11.69L8.70,11.74Z M8.46,16.21L8.50,16.27L8.46,16.21Z M8.51,15.49L8.54,15.55L8.49,15.52L8.44,15.50L8.48,15.48Z M9.00,15.04L8.94,15.07L8.92,15.01L8.97,15.03Z M7.97,11.81L8.05,11.86L7.90,11.79L7.97,11.81Z M7.72,11.77L7.87,11.78L7.81,11.77L7.75,11.78L7.61,11.84L7.66,11.80L7.72,11.77Z M9.12,15.04L9.08,15.08L9.12,15.04Z M23.78,24.00L23.81,24.08L23.85,24.18L23.88,24.28L23.92,24.37L23.96,24.47L23.99,24.57L24.03,24.66L24.07,24.76L24.10,24.86L24.14,24.95L24.18,25.05L24.21,25.15L24.25,25.24L24.28,25.34L24.32,25.44L24.36,25.53L24.39,25.63L24.42,25.70L24.47,25.72L24.51,25.82L24.57,25.95L24.62,26.09L24.67,26.22L24.73,26.36L24.67,26.38L24.61,26.38L24.55,26.42L24.49,26.45L24.44,26.48L24.31,26.52L24.25,26.55L24.16,26.63L24.07,26.71L24.04,26.76L23.99,26.83L23.98,26.90L23.96,26.97L23.94,27.04L23.95,27.12L23.99,27.17L23.98,27.24L24.00,27.33L23.99,27.39L23.84,27.43L23.79,27.45L23.73,27.48L23.69,27.53L23.64,27.54L23.53,27.60L23.52,27.66L23.42,27.68L23.35,27.73L23.27,27.76L23.22,27.77L23.01,27.85L22.82,27.89L22.66,27.94L22.57,27.95L22.49,27.99L22.40,28.07L22.31,28.11L22.25,28.16L22.17,28.17L22.12,28.15L22.05,28.16L21.93,28.21L21.74,28.26L21.64,28.33L21.57,28.35L21.52,28.39L21.44,28.42L21.40,28.48L21.35,28.47L21.27,28.56L21.25,28.64L21.21,28.70L21.17,28.74L21.14,28.80L21.08,28.86L21.03,28.93L20.98,28.96L20.88,28.95L20.83,29.00L20.75,28.98L20.69,28.98L20.56,29.03L20.53,28.98L20.41,28.94L20.36,28.97L20.29,29.04L20.12,29.11L20.03,29.21L19.92,29.32L19.69,29.41L19.48,29.47L19.40,29.52L19.30,29.57L19.23,29.56L19.16,29.58L18.97,29.59L18.91,29.57L18.79,29.59L18.65,29.60L18.59,29.62L18.54,29.62L18.42,29.66L18.31,29.77L18.26,29.84L18.22,29.90L18.16,29.95L18.01,29.99L17.95,30.04L17.92,30.09L17.90,30.17L17.90,30.24L17.85,30.23L17.89,30.18L17.84,30.16L17.78,30.20L17.76,30.26L17.71,30.25L17.65,30.23L17.60,30.21L17.52,30.18L17.46,30.20L17.42,30.25L17.37,30.31L17.30,30.33L17.25,30.36L17.19,30.36L17.14,30.38L17.05,30.39L16.99,30.39L16.94,30.39L16.89,30.34L16.84,30.31L16.79,30.30L16.73,30.26L16.68,30.25L16.60,30.30L16.55,30.32L16.56,30.23L16.55,30.15L16.51,30.09L16.49,30.03L16.44,29.94L16.42,29.87L16.36,29.79L16.34,29.72L16.36,29.65L16.37,29.47L16.39,29.42L16.39,29.31L16.36,29.22L16.35,29.12L16.29,29.05L16.25,28.95L16.22,28.84L16.21,28.78L16.17,28.63L16.14,28.55L16.12,28.49L16.16,28.55L16.17,28.46L16.15,28.40L16.15,28.34L16.11,28.26L16.06,28.15L16.05,28.08L16.07,28.16L16.10,28.08L16.06,28.00L16.05,27.90L16.00,27.85L15.96,27.81L15.90,27.79L15.84,27.81L15.88,27.75L15.88,27.69L15.91,27.63L15.91,27.70L15.96,27.74L15.99,27.66L15.96,27.59L15.96,27.52L15.91,27.43L15.90,27.36L15.89,27.28L15.93,27.24L15.95,27.16L16.00,27.13L16.02,26.95L15.99,26.76L15.99,26.69L15.97,26.63L16.04,26.60L16.07,26.53L16.13,26.50L16.18,26.46L16.21,26.38L16.23,26.32L16.29,26.34L16.30,26.28L16.33,26.23L16.28,26.17L16.25,26.09L16.26,26.01L16.26,25.95L16.27,25.85L16.28,25.79L16.34,25.76L16.34,25.69L16.33,25.61L16.41,25.54L16.48,25.49L16.54,25.48L16.64,25.52L16.74,25.62L16.79,25.65L16.87,25.65L16.91,25.69L16.97,25.66L17.05,25.65L17.10,25.63L17.18,25.61L17.26,25.59L17.34,25.58L17.40,25.58L17.45,25.60L17.53,25.57L17.72,25.57L17.83,25.57L17.99,25.57L18.18,25.67L18.40,25.71L18.61,25.73L18.77,25.75L18.97,25.78L19.11,25.75L19.30,25.72L19.39,25.83L19.45,25.93L19.52,26.04L19.66,26.06L19.71,26.04L19.82,25.97L19.91,25.91L20.00,25.69L20.04,25.57L20.13,25.42L20.26,25.24L20.39,25.05L20.47,24.94L20.54,24.85L20.67,24.77L20.81,24.69L20.97,24.60L21.12,24.51L21.24,24.44L21.36,24.39L21.47,24.37L21.61,24.35L21.74,24.33L21.88,24.31L22.01,24.28L22.15,24.26L22.29,24.24L22.42,24.22L22.56,24.20L22.69,24.18L22.83,24.15L22.97,24.13L23.10,24.11L23.24,24.09L23.38,24.07L23.51,24.05L23.65,24.03L23.78,24.00Z M24.86,30.88L24.91,30.89L24.86,30.88Z M24.70,30.83L24.64,30.84L24.70,30.83Z M24.05,30.80L24.12,30.80L24.08,30.85L24.00,30.84L23.95,30.83L23.91,30.80L23.85,30.76L23.93,30.77L23.98,30.79L24.05,30.80Z M25.90,30.46L25.96,30.45L25.91,30.48L25.84,30.53L25.78,30.56L25.71,30.57L25.66,30.62L25.59,30.65L25.54,30.65L25.49,30.66L25.41,30.67L25.31,30.70L25.22,30.69L25.14,30.67L25.09,30.61L25.02,30.55L24.93,30.48L24.98,30.44L24.99,30.34L25.05,30.33L25.09,30.29L25.17,30.30L25.24,30.33L25.30,30.38L25.37,30.40L25.42,30.35L25.48,30.35L25.54,30.33L25.60,30.30L25.64,30.34L25.70,30.35L25.77,30.39L25.84,30.42L25.90,30.46Z M15.91,29.26L15.97,29.22L15.95,29.28L15.89,29.34L15.91,29.26Z M15.95,28.94L15.98,28.99L15.97,29.06L15.91,29.03L15.90,28.97L15.95,28.94Z M15.84,27.55L15.80,27.60L15.82,27.67L15.79,27.73L15.76,27.68L15.78,27.61L15.81,27.56Z M22.57,16.81L22.63,16.81L22.64,16.88L22.63,16.95L22.63,17.04L22.61,17.15L22.58,17.21L22.57,17.15L22.53,17.09L22.50,17.04L22.51,16.98L22.51,16.91L22.49,16.85L22.49,16.77L22.55,16.77L22.60,16.76L22.57,16.81Z M22.44,16.83L22.46,16.88L22.44,16.83Z M22.61,16.72L22.66,16.75L22.61,16.72Z M22.76,17.28L22.75,17.35L22.74,17.41L22.73,17.35L22.75,17.28Z"/></svg>
